<svg width="26px" height="25px" viewBox="0 0 26 25" version="1.1" xmlns="http://www.w3.org/2000/svg" xmlns:xlink="http://www.w3.org/1999/xlink">
    <g id="Desktop" stroke="none" stroke-width="1" fill="none" fill-rule="evenodd">
        <g id="Profile" transform="translate(-204.000000, -1204.000000)" fill="#64748B" fill-rule="nonzero">
            <g id="facebook-brands" transform="translate(204.075000, 1204.000000)">
                <path d="M25,12.5 C25,5.59475806 19.4052419,0 12.5,0 C5.59475806,0 0,5.59475806 0,12.5 C0,18.7389113 4.57106855,23.9102823 10.546875,24.8487903 L10.546875,16.1134073 L7.37147177,16.1134073 L7.37147177,12.5 L10.546875,12.5 L10.546875,9.74596774 C10.546875,6.61340726 12.4117944,4.88306452 15.2681452,4.88306452 C16.6360887,4.88306452 18.0665323,5.12701613 18.0665323,5.12701613 L18.0665323,8.2016129 L16.4899194,8.2016129 C14.9375,8.2016129 14.453125,9.16532258 14.453125,10.1537298 L14.453125,12.5 L17.9198589,12.5 L17.3654234,16.1134073 L14.453125,16.1134073 L14.453125,24.8487903 C20.4289315,23.9102823 25,18.7389113 25,12.5 Z" id="Path"></path>
            </g>
        </g>
    </g>
</svg>